<svg xmlns="http://www.w3.org/2000/svg" xmlns:xlink="http://www.w3.org/1999/xlink" width="1080" zoomAndPan="magnify" viewBox="0 0 810 809.999993" height="1080" preserveAspectRatio="xMidYMid meet" version="1.0"><defs><g/></defs><g fill="#000000" fill-opacity="1"><g transform="translate(60.046875, 446.999998)"><g><path d="M 9.953125 -84 L 29.40625 -84 L 29.40625 0 L 9.953125 0 Z M 9.953125 -84 "/></g></g></g><g fill="#000000" fill-opacity="1"><g transform="translate(99.406893, 446.999998)"><g><path d="M 9.953125 -84 L 48.125 -84 C 57.238281 -84 65.296875 -82.257812 72.296875 -78.78125 C 79.296875 -75.300781 84.734375 -70.398438 88.609375 -64.078125 C 92.492188 -57.753906 94.4375 -50.394531 94.4375 -42 C 94.4375 -33.601562 92.492188 -26.242188 88.609375 -19.921875 C 84.734375 -13.597656 79.296875 -8.695312 72.296875 -5.21875 C 65.296875 -1.738281 57.238281 0 48.125 0 L 9.953125 0 Z M 47.15625 -15.953125 C 55.5625 -15.953125 62.265625 -18.289062 67.265625 -22.96875 C 72.265625 -27.65625 74.765625 -34 74.765625 -42 C 74.765625 -50 72.265625 -56.335938 67.265625 -61.015625 C 62.265625 -65.703125 55.5625 -68.046875 47.15625 -68.046875 L 29.40625 -68.046875 L 29.40625 -15.953125 Z M 47.15625 -15.953125 "/></g></g></g><g fill="#000000" fill-opacity="1"><g transform="translate(198.526937, 446.999998)"><g><path d="M 75 -15.59375 L 75 0 L 9.953125 0 L 9.953125 -84 L 73.4375 -84 L 73.4375 -68.40625 L 29.28125 -68.40625 L 29.28125 -50.15625 L 68.28125 -50.15625 L 68.28125 -35.046875 L 29.28125 -35.046875 L 29.28125 -15.59375 Z M 75 -15.59375 "/></g></g></g><g fill="#000000" fill-opacity="1"><g transform="translate(279.046979, 446.999998)"><g><path d="M 50.640625 1.4375 C 41.921875 1.4375 34.0625 -0.441406 27.0625 -4.203125 C 20.0625 -7.960938 14.582031 -13.140625 10.625 -19.734375 C 6.664062 -26.335938 4.6875 -33.757812 4.6875 -42 C 4.6875 -50.238281 6.664062 -57.65625 10.625 -64.25 C 14.582031 -70.851562 20.0625 -76.035156 27.0625 -79.796875 C 34.0625 -83.554688 41.921875 -85.4375 50.640625 -85.4375 C 59.359375 -85.4375 67.195312 -83.554688 74.15625 -79.796875 C 81.113281 -76.035156 86.59375 -70.851562 90.59375 -64.25 C 94.59375 -57.65625 96.59375 -50.238281 96.59375 -42 C 96.59375 -33.757812 94.59375 -26.335938 90.59375 -19.734375 C 86.59375 -13.140625 81.113281 -7.960938 74.15625 -4.203125 C 67.195312 -0.441406 59.359375 1.4375 50.640625 1.4375 Z M 50.640625 -15.125 C 55.597656 -15.125 60.078125 -16.257812 64.078125 -18.53125 C 68.078125 -20.8125 71.21875 -23.992188 73.5 -28.078125 C 75.78125 -32.160156 76.921875 -36.800781 76.921875 -42 C 76.921875 -47.195312 75.78125 -51.835938 73.5 -55.921875 C 71.21875 -60.003906 68.078125 -63.179688 64.078125 -65.453125 C 60.078125 -67.734375 55.597656 -68.875 50.640625 -68.875 C 45.679688 -68.875 41.203125 -67.734375 37.203125 -65.453125 C 33.203125 -63.179688 30.0625 -60.003906 27.78125 -55.921875 C 25.5 -51.835938 24.359375 -47.195312 24.359375 -42 C 24.359375 -36.800781 25.5 -32.160156 27.78125 -28.078125 C 30.0625 -23.992188 33.203125 -20.8125 37.203125 -18.53125 C 41.203125 -16.257812 45.679688 -15.125 50.640625 -15.125 Z M 50.640625 -15.125 "/></g></g></g><g fill="#000000" fill-opacity="1"><g transform="translate(380.327027, 446.999998)"><g><path d="M 87 -84 L 87 0 L 71.046875 0 L 29.15625 -51 L 29.15625 0 L 9.953125 0 L 9.953125 -84 L 26.046875 -84 L 67.796875 -33 L 67.796875 -84 Z M 87 -84 "/></g></g></g><g fill="#000000" fill-opacity="1"><g transform="translate(477.292952, 446.999998)"><g><path d="M 13.6875 -84 L 22.5625 -84 L 22.5625 -7.6875 L 69.59375 -7.6875 L 69.59375 0 L 13.6875 0 Z M 13.6875 -84 "/></g></g></g><g fill="#000000" fill-opacity="1"><g transform="translate(547.972987, 446.999998)"><g><path d="M 66.359375 -22.4375 L 19.5625 -22.4375 L 9.484375 0 L 0.234375 0 L 38.640625 -84 L 47.40625 -84 L 85.796875 0 L 76.4375 0 Z M 63.125 -29.640625 L 42.953125 -74.765625 L 22.796875 -29.640625 Z M 63.125 -29.640625 "/></g></g></g><g fill="#000000" fill-opacity="1"><g transform="translate(634.013029, 446.999998)"><g><path d="M 66.59375 -43.3125 C 72.113281 -42.113281 76.375 -39.734375 79.375 -36.171875 C 82.375 -32.617188 83.875 -28.039062 83.875 -22.4375 C 83.875 -15.238281 81.210938 -9.695312 75.890625 -5.8125 C 70.578125 -1.9375 62.71875 0 52.3125 0 L 13.6875 0 L 13.6875 -84 L 49.921875 -84 C 59.273438 -84 66.53125 -82.117188 71.6875 -78.359375 C 76.851562 -74.597656 79.4375 -69.28125 79.4375 -62.40625 C 79.4375 -57.757812 78.296875 -53.816406 76.015625 -50.578125 C 73.734375 -47.335938 70.59375 -44.914062 66.59375 -43.3125 Z M 22.5625 -76.6875 L 22.5625 -46.203125 L 49.3125 -46.203125 C 56.113281 -46.203125 61.351562 -47.5 65.03125 -50.09375 C 68.71875 -52.695312 70.5625 -56.476562 70.5625 -61.4375 C 70.5625 -66.394531 68.71875 -70.175781 65.03125 -72.78125 C 61.351562 -75.382812 56.113281 -76.6875 49.3125 -76.6875 Z M 52.203125 -7.3125 C 59.722656 -7.3125 65.398438 -8.59375 69.234375 -11.15625 C 73.078125 -13.71875 75 -17.71875 75 -23.15625 C 75 -33.632812 67.398438 -38.875 52.203125 -38.875 L 22.5625 -38.875 L 22.5625 -7.3125 Z M 52.203125 -7.3125 "/></g></g></g><g fill="#000000" fill-opacity="1"><g transform="translate(724.493058, 446.999998)"><g><path d="M 12.71875 0.59375 C 10.957031 0.59375 9.457031 -0.0390625 8.21875 -1.3125 C 6.976562 -2.59375 6.359375 -4.15625 6.359375 -6 C 6.359375 -7.84375 6.976562 -9.382812 8.21875 -10.625 C 9.457031 -11.863281 10.957031 -12.484375 12.71875 -12.484375 C 14.476562 -12.484375 16 -11.863281 17.28125 -10.625 C 18.5625 -9.382812 19.203125 -7.84375 19.203125 -6 C 19.203125 -4.15625 18.5625 -2.59375 17.28125 -1.3125 C 16 -0.0390625 14.476562 0.59375 12.71875 0.59375 Z M 12.71875 0.59375 "/></g></g></g></svg>