<svg xmlns="http://www.w3.org/2000/svg" xmlns:xlink="http://www.w3.org/1999/xlink" width="1920" zoomAndPan="magnify" viewBox="0 0 1440 809.999993" height="1080" preserveAspectRatio="xMidYMid meet" version="1.0"><defs><g/></defs><g fill="#000000" fill-opacity="1"><g transform="translate(30.117192, 514.625003)"><g><path d="M 19.921875 -168 L 58.796875 -168 L 58.796875 0 L 19.921875 0 Z M 19.921875 -168 "/></g></g></g><g fill="#000000" fill-opacity="1"><g transform="translate(108.837033, 514.625003)"><g><path d="M 19.921875 -168 L 96.234375 -168 C 114.472656 -168 130.59375 -164.519531 144.59375 -157.5625 C 158.59375 -150.601562 169.472656 -140.800781 177.234375 -128.15625 C 184.992188 -115.519531 188.875 -100.800781 188.875 -84 C 188.875 -67.195312 184.992188 -52.472656 177.234375 -39.828125 C 169.472656 -27.191406 158.59375 -17.394531 144.59375 -10.4375 C 130.59375 -3.476562 114.472656 0 96.234375 0 L 19.921875 0 Z M 94.3125 -31.921875 C 111.113281 -31.921875 124.515625 -36.597656 134.515625 -45.953125 C 144.515625 -55.316406 149.515625 -68 149.515625 -84 C 149.515625 -100 144.515625 -112.675781 134.515625 -122.03125 C 124.515625 -131.394531 111.113281 -136.078125 94.3125 -136.078125 L 58.796875 -136.078125 L 58.796875 -31.921875 Z M 94.3125 -31.921875 "/></g></g></g><g fill="#000000" fill-opacity="1"><g transform="translate(307.076663, 514.625003)"><g><path d="M 150 -31.203125 L 150 0 L 19.921875 0 L 19.921875 -168 L 146.875 -168 L 146.875 -136.796875 L 58.5625 -136.796875 L 58.5625 -100.3125 L 136.5625 -100.3125 L 136.5625 -70.078125 L 58.5625 -70.078125 L 58.5625 -31.203125 Z M 150 -31.203125 "/></g></g></g><g fill="#000000" fill-opacity="1"><g transform="translate(468.116355, 514.625003)"><g><path d="M 101.28125 2.875 C 83.84375 2.875 68.125 -0.882812 54.125 -8.40625 C 40.125 -15.925781 29.160156 -26.285156 21.234375 -39.484375 C 13.316406 -52.679688 9.359375 -67.519531 9.359375 -84 C 9.359375 -100.476562 13.316406 -115.316406 21.234375 -128.515625 C 29.160156 -141.710938 40.125 -152.070312 54.125 -159.59375 C 68.125 -167.113281 83.84375 -170.875 101.28125 -170.875 C 118.71875 -170.875 134.394531 -167.113281 148.3125 -159.59375 C 162.238281 -152.070312 173.203125 -141.710938 181.203125 -128.515625 C 189.203125 -115.316406 193.203125 -100.476562 193.203125 -84 C 193.203125 -67.519531 189.203125 -52.679688 181.203125 -39.484375 C 173.203125 -26.285156 162.238281 -15.925781 148.3125 -8.40625 C 134.394531 -0.882812 118.71875 2.875 101.28125 2.875 Z M 101.28125 -30.234375 C 111.195312 -30.234375 120.15625 -32.515625 128.15625 -37.078125 C 136.15625 -41.640625 142.4375 -48 147 -56.15625 C 151.5625 -64.320312 153.84375 -73.601562 153.84375 -84 C 153.84375 -94.394531 151.5625 -103.671875 147 -111.828125 C 142.4375 -119.992188 136.15625 -126.359375 128.15625 -130.921875 C 120.15625 -135.484375 111.195312 -137.765625 101.28125 -137.765625 C 91.363281 -137.765625 82.40625 -135.484375 74.40625 -130.921875 C 66.40625 -126.359375 60.125 -119.992188 55.5625 -111.828125 C 51 -103.671875 48.71875 -94.394531 48.71875 -84 C 48.71875 -73.601562 51 -64.320312 55.5625 -56.15625 C 60.125 -48 66.40625 -41.640625 74.40625 -37.078125 C 82.40625 -32.515625 91.363281 -30.234375 101.28125 -30.234375 Z M 101.28125 -30.234375 "/></g></g></g><g fill="#000000" fill-opacity="1"><g transform="translate(670.676037, 514.625003)"><g><path d="M 174 -168 L 174 0 L 142.078125 0 L 58.3125 -102 L 58.3125 0 L 19.921875 0 L 19.921875 -168 L 52.078125 -168 L 135.59375 -66 L 135.59375 -168 Z M 174 -168 "/></g></g></g><g fill="#000000" fill-opacity="1"><g transform="translate(864.597623, 514.625003)"><g><path d="M 27.359375 -168 L 45.125 -168 L 45.125 -15.359375 L 139.203125 -15.359375 L 139.203125 0 L 27.359375 0 Z M 27.359375 -168 "/></g></g></g><g fill="#000000" fill-opacity="1"><g transform="translate(1005.957383, 514.625003)"><g><path d="M 132.71875 -44.875 L 39.125 -44.875 L 18.953125 0 L 0.484375 0 L 77.28125 -168 L 94.796875 -168 L 171.59375 0 L 152.875 0 Z M 126.234375 -59.28125 L 85.921875 -149.515625 L 45.59375 -59.28125 Z M 126.234375 -59.28125 "/></g></g></g><g fill="#000000" fill-opacity="1"><g transform="translate(1178.037089, 514.625003)"><g><path d="M 133.203125 -86.640625 C 144.242188 -84.242188 152.765625 -79.484375 158.765625 -72.359375 C 164.765625 -65.242188 167.765625 -56.082031 167.765625 -44.875 C 167.765625 -30.476562 162.441406 -19.398438 151.796875 -11.640625 C 141.160156 -3.878906 125.441406 0 104.640625 0 L 27.359375 0 L 27.359375 -168 L 99.84375 -168 C 118.5625 -168 133.078125 -164.238281 143.390625 -156.71875 C 153.710938 -149.195312 158.875 -138.554688 158.875 -124.796875 C 158.875 -115.515625 156.59375 -107.632812 152.03125 -101.15625 C 147.476562 -94.675781 141.203125 -89.835938 133.203125 -86.640625 Z M 45.125 -153.359375 L 45.125 -92.40625 L 98.640625 -92.40625 C 112.242188 -92.40625 122.722656 -95.003906 130.078125 -100.203125 C 137.441406 -105.398438 141.125 -112.957031 141.125 -122.875 C 141.125 -132.800781 137.441406 -140.363281 130.078125 -145.5625 C 122.722656 -150.757812 112.242188 -153.359375 98.640625 -153.359375 Z M 104.40625 -14.640625 C 119.4375 -14.640625 130.789062 -17.195312 138.46875 -22.3125 C 146.15625 -27.4375 150 -35.4375 150 -46.3125 C 150 -67.28125 134.800781 -77.765625 104.40625 -77.765625 L 45.125 -77.765625 L 45.125 -14.640625 Z M 104.40625 -14.640625 "/></g></g></g><g fill="#000000" fill-opacity="1"><g transform="translate(1358.99678, 514.625003)"><g><path d="M 25.4375 1.203125 C 21.914062 1.203125 18.914062 -0.078125 16.4375 -2.640625 C 13.957031 -5.203125 12.71875 -8.320312 12.71875 -12 C 12.71875 -15.675781 13.957031 -18.753906 16.4375 -21.234375 C 18.914062 -23.710938 21.914062 -24.953125 25.4375 -24.953125 C 28.957031 -24.953125 32 -23.710938 34.5625 -21.234375 C 37.125 -18.753906 38.40625 -15.675781 38.40625 -12 C 38.40625 -8.320312 37.125 -5.203125 34.5625 -2.640625 C 32 -0.078125 28.957031 1.203125 25.4375 1.203125 Z M 25.4375 1.203125 "/></g></g></g></svg>